<svg width="68" height="445" viewBox="0 0 68 445" fill="none" xmlns="http://www.w3.org/2000/svg">
<path d="M68 164.257L68 210.784C62.1633 228.16 52.36 236.594 38.0233 236.594C17.2833 236.594 7.99 219.444 7.98999 202.407C7.98999 193.124 11.3333 180.502 12.4667 176.37C12.6933 175.634 12.2967 174.898 11.6167 174.559L11.4467 174.502C10.2567 173.936 9.46333 172.747 9.46333 171.389C9.46333 169.521 10.9933 167.993 12.8633 167.993L36.8333 167.993C38.4767 167.993 39.8367 169.351 39.8367 170.993C39.8367 171.898 39.3833 172.804 38.6467 173.37C32.3567 178.238 30.43 179.709 29.75 180.162L29.8067 180.219C29.6367 180.332 26.4633 182.766 20.1167 187.634C16.49 190.407 12.8067 194.426 12.8067 203.199C12.8067 207.274 13.8267 220.576 26.69 220.576C36.04 220.576 39.1567 211.633 40.29 208.293L40.3467 208.067C40.8 206.765 41.2533 205.237 41.82 203.652C44.37 195.954 47.8833 185.426 51.7933 178.974C56.27 171.502 61.6533 166.691 68 164.257ZM44.03 8.71661L44.03 5.0375C44.03 2.26404 41.7633 -3.23398e-05 38.9866 -3.22184e-05C38.5333 -3.21986e-05 38.1366 0.396178 38.1366 0.848997L38.1366 8.71661L20.3433 8.71661C19.89 8.71661 19.4933 9.11282 19.4933 9.56561L19.4933 14.8861C19.4933 17.3766 20.6833 19.8105 22.6666 21.3387L38.08 33.1684L38.08 51.111L18.9833 65.7708C17.34 67.0726 15.13 67.6386 13.77 67.6386C9.68999 67.6386 6.34666 64.2992 6.34666 60.2238C6.34666 57.1108 8.21665 54.2807 11.05 53.3185C12.07 52.9789 13.0333 52.8091 14.0533 52.8091C15.7533 52.8657 17.1133 54.3373 17.1133 56.0919C17.1133 56.658 17.34 57.1674 17.7367 57.5636C18.1333 57.9598 18.6433 58.1862 19.21 58.1862C20.3433 58.1862 21.25 57.2806 21.25 56.1486L21.25 37.3569C21.25 36.9041 20.91 36.5079 20.4566 36.5079C12.6367 35.9984 6.91332 38.2059 3.45666 43.0736C-1.24668 49.6394 -0.453343 59.6578 2.26666 66.167L2.32332 66.3368L2.32332 66.3934C4.75999 71.9969 10.2567 75.6194 16.3767 75.6194L38.1366 75.6194L38.1366 81.3928C38.1366 83.0342 39.44 84.336 41.0833 84.336C42.7266 84.336 44.03 83.0342 44.03 81.3928L44.03 75.6194L68 75.6194L68 50.7148L44.03 50.7148L44.03 33.6778L68 33.6778L68 8.71661L44.03 8.71661ZM38.93 252.272C38.7033 252.272 38.4767 252.386 38.3067 252.499C38.1367 252.669 38.08 252.895 38.08 253.121L38.08 285.045C38.08 285.497 38.4767 285.894 38.93 285.894C41.7067 285.894 43.9733 283.629 43.9733 280.856C43.9733 278.818 45.6167 277.177 47.6567 277.177L68 277.177L68 252.272L38.93 252.272ZM19.7767 285.045L19.7767 253.121C19.7767 252.669 19.38 252.272 18.9267 252.272L11.9 252.272C11.4467 252.272 11.05 252.669 11.05 253.121L11.05 285.045C11.05 285.497 11.4467 285.894 11.9 285.894L18.87 285.894C19.38 285.894 19.7767 285.497 19.7767 285.045ZM36.21 426.944L68 415.171L68 388.625L22.2133 405.605C15.5267 408.096 11.05 414.492 11.05 421.624C11.05 422.982 11.9 424.227 13.2033 424.68L68 445L68 438.717L36.21 426.944ZM36.6633 120.335C36.6633 138.843 50.2633 154.239 68 157.125L68 132.73L53.6066 132.73C46.75 132.73 41.1966 127.183 41.1966 120.335C41.1966 113.486 46.75 107.939 53.6066 107.939L68 107.939L68 83.6002C50.2633 86.4303 36.6633 101.826 36.6633 120.335ZM66.7533 342.382C52.87 342.382 44.2567 333.495 44.2 327.156C44.2 327.099 44.2 327.099 44.2 327.043C44.2 322.345 47.3733 320.873 57.7433 320.703L68 320.703L68 295.799L61.9367 295.799C39.6667 295.799 36.6633 307.289 36.6633 318.553C36.6633 330.156 40.0067 337.118 48.45 342.325L38.93 342.325C38.4767 342.325 38.08 342.721 38.08 343.174L38.08 375.097C38.08 375.55 38.4767 375.946 38.93 375.946L41.0267 375.946C42.67 375.946 43.9733 374.644 43.9733 373.003C43.9733 369.833 46.58 367.23 49.7533 367.23L68 367.23L68 342.382L66.7533 342.382Z" fill="white"/>
</svg>
