<svg width="10" height="6" viewBox="0 0 10 6" fill="none" xmlns="http://www.w3.org/2000/svg">
<path fill-rule="evenodd" clip-rule="evenodd" d="M0.234522 0.244006C0.384732 0.0877697 0.588433 1.71103e-07 0.80083 1.52534e-07C1.01323 1.33966e-07 1.21693 0.0877696 1.36714 0.244006L4.00484 2.98837L6.64253 0.244006C6.7936 0.0921966 6.99594 0.00819549 7.20596 0.0100942C7.41598 0.011993 7.61688 0.0996399 7.76539 0.254158C7.9139 0.408675 7.99814 0.617701 7.99997 0.836214C8.00179 1.05473 7.92106 1.26524 7.77515 1.42242L4.57114 4.75599C4.42093 4.91223 4.21723 5 4.00484 5C3.79244 5 3.58874 4.91223 3.43853 4.75599L0.234523 1.42242C0.0843579 1.26614 -3.44953e-07 1.0542 -3.64272e-07 0.833215C-3.83591e-07 0.612229 0.0843578 0.400291 0.234522 0.244006Z" fill="white"/>
</svg>
