<svg width="10" height="7" viewBox="0 0 10 7" fill="none" xmlns="http://www.w3.org/2000/svg">
<path d="M1.34475 1.15036L4.63416 4.43977L4.98771 4.79332L5.34127 4.43977L8.63421 1.14682C8.63423 1.1468 8.63425 1.14678 8.63427 1.14677C8.72802 1.05306 8.85515 1.00043 8.98771 1.00043C9.12025 1.00043 9.24735 1.05304 9.3411 1.14671C9.34114 1.14675 9.34118 1.14678 9.34121 1.14682M1.34475 1.15036L9.34121 1.14682M1.34475 1.15036C1.25074 1.06086 1.12555 1.01139 0.995655 1.01252C0.864557 1.01366 0.739151 1.06624 0.646447 1.15895C0.553743 1.25165 0.501158 1.37706 0.500019 1.50816C0.49889 1.63805 0.548358 1.76324 0.637865 1.85726L4.63421 5.85361C4.63423 5.85362 4.63425 5.85364 4.63427 5.85366C4.72802 5.94736 4.85516 6 4.98771 6C5.12027 6 5.2474 5.94736 5.34116 5.85366C5.34118 5.85364 5.34119 5.85362 5.34121 5.85361L9.3411 1.85371M1.34475 1.15036L9.3411 1.85371M9.34121 1.14682C9.43488 1.24057 9.4875 1.36768 9.4875 1.50021C9.4875 1.63277 9.43486 1.7599 9.34116 1.85366M9.34121 1.14682L9.34116 1.85366M9.34116 1.85366L9.3411 1.85371M9.34116 1.85366L9.3411 1.85371" fill="#00AC4D" stroke="black"/>
</svg>
