<svg width="6" height="10" viewBox="0 0 6 10" fill="none" xmlns="http://www.w3.org/2000/svg">
<path fill-rule="evenodd" clip-rule="evenodd" d="M5.70672 0.292837C5.8942 0.480365 5.99951 0.734673 5.99951 0.999837C5.99951 1.265 5.8942 1.51931 5.70672 1.70684L2.41372 4.99984L5.70672 8.29284C5.88888 8.48144 5.98968 8.73404 5.9874 8.99624C5.98512 9.25843 5.87995 9.50925 5.69454 9.69466C5.50914 9.88006 5.25832 9.98523 4.99613 9.98751C4.73393 9.98979 4.48133 9.88899 4.29273 9.70684L0.292725 5.70684C0.105254 5.51931 -6.1448e-05 5.265 -6.14712e-05 4.99984C-6.14944e-05 4.73467 0.105254 4.48037 0.292725 4.29284L4.29272 0.292837C4.48025 0.105366 4.73456 5.06553e-05 4.99972 5.06321e-05C5.26489 5.0609e-05 5.5192 0.105366 5.70672 0.292837Z" fill="#18354B"/>
</svg>
